<svg width="14" height="16" viewBox="0 0 16 16" fill="none" xmlns="http://www.w3.org/2000/svg">
<path d="M1.34375 14.5625C0.760417 13.9583 0.364583 13.2396 0.15625 12.4062C-0.0520833 11.5729 -0.0520833 10.75 0.15625 9.9375C0.385417 9.10417 0.802083 8.38542 1.40625 7.78125L7.9375 1.0625C8.39583 0.604167 8.92708 0.291667 9.53125 0.125C10.1562 -0.0416667 10.7708 -0.0416667 11.375 0.125C11.9792 0.291667 12.5104 0.604167 12.9688 1.0625C13.4271 1.52083 13.7292 2.0625 13.875 2.6875C14.0417 3.29167 14.0417 3.90625 13.875 4.53125C13.7292 5.13542 13.4271 5.66667 12.9688 6.125L7.25 11.9688C6.79167 12.4479 6.22917 12.6875 5.5625 12.6875C4.89583 12.6667 4.33333 12.4271 3.875 11.9688C3.4375 11.4896 3.21875 10.9271 3.21875 10.2812C3.23958 9.61458 3.47917 9.05208 3.9375 8.59375L8.40625 4C8.51042 3.91667 8.625 3.875 8.75 3.875C8.89583 3.85417 9.02083 3.89583 9.125 4L9.84375 4.6875C9.94792 4.79167 10 4.91667 10 5.0625C10 5.1875 9.94792 5.30208 9.84375 5.40625L5.34375 10C5.28125 10.0833 5.23958 10.1875 5.21875 10.3125C5.21875 10.4167 5.25 10.5104 5.3125 10.5938C5.39583 10.6562 5.47917 10.6875 5.5625 10.6875C5.66667 10.6875 5.75 10.6458 5.8125 10.5625L11.5312 4.75C11.8438 4.41667 12 4.03125 12 3.59375C12 3.15625 11.8438 2.78125 11.5312 2.46875C11.2396 2.15625 10.8854 2 10.4688 2C10.0521 2 9.6875 2.15625 9.375 2.46875L2.8125 9.15625C2.27083 9.71875 2 10.3958 2 11.1875C2 11.9583 2.26042 12.625 2.78125 13.1875C3.32292 13.7292 3.96875 14 4.71875 14C5.46875 14 6.10417 13.7292 6.625 13.1875L12 7.6875C12.1042 7.58333 12.2188 7.53125 12.3438 7.53125C12.4896 7.53125 12.6146 7.58333 12.7188 7.6875L13.4375 8.375C13.5417 8.47917 13.5938 8.60417 13.5938 8.75C13.5938 8.875 13.5417 8.98958 13.4375 9.09375L8.0625 14.5938C7.45833 15.2188 6.73958 15.6354 5.90625 15.8438C5.09375 16.0521 4.28125 16.0417 3.46875 15.8125C2.65625 15.6042 1.94792 15.1875 1.34375 14.5625Z" fill="#2E2236"/>
</svg>
